<svg width="28" height="29" viewBox="0 0 28 29" fill="none" xmlns="http://www.w3.org/2000/svg">
<path d="M2 8H21V27H2V8Z" fill="#FFC46B"/>
<path d="M2 8V6.5H0.5V8H2ZM21 8H22.5V6.5H21V8ZM21 27V28.5H22.5V27H21ZM2 27H0.5V28.5H2V27ZM2 9.5H21V6.5H2V9.5ZM19.5 8V27H22.5V8H19.5ZM21 25.5H2V28.5H21V25.5ZM3.5 27V8H0.5V27H3.5Z" fill="black"/>
<path d="M7 2H26V21H7V2Z" fill="#FFC46B"/>
<path d="M7 2V0.5H5.5V2H7ZM26 2H27.5V0.5H26V2ZM26 21V22.5H27.5V21H26ZM7 21H5.5V22.5H7V21ZM7 3.5H26V0.5H7V3.5ZM24.5 2V21H27.5V2H24.5ZM26 19.5H7V22.5H26V19.5ZM8.5 21V2H5.5V21H8.5Z" fill="black"/>
</svg>
