<svg width="16" height="23" viewBox="0 0 16 23" fill="none" xmlns="http://www.w3.org/2000/svg">
<path d="M15.2727 1.06912V0H14.9091H12V1.06912H10.9091V2.13825H10.1818V3.20737H9.45455V4.2765H8.72727V5.34562H8V6.41475H7.27273V7.48387H6.54545V8.553H5.81818V9.62212H5.09091V10.6912H4.36364V11.7604H3.63636V12.8295H2.90909V13.8986H2.18182V14.9677H1.45455V16.0369H0.727273V17.106H0V18.1751V22.0952H0.363636H1.45455V21.3825H2.54545V20.6697H3.63636V19.957H4.36364V19.2442H5.09091V18.1751H5.81818V17.106H6.54545V16.0369H7.27273V14.9677H8V13.8986H8.72727V12.8295H9.45455V11.7604H10.1818V10.6912H10.9091V9.62212H11.6364V8.553H12.3636V7.48387H13.0909V6.41475H13.8182V5.34562H14.5455V4.2765H15.2727V3.20737H16V2.13825V1.06912H15.2727ZM4.36364 18.5315H3.63636V19.2442H2.90909V19.957H2.18182H1.81818H0.727273V17.8187H1.45455H4.36364V18.5315ZM14.9091 2.851H14.5455H11.6364V1.78187H12.7273V0.71275H14.1818H14.5455V1.78187H14.9091V2.851Z" fill="black"/>
</svg>
