<svg width="18" height="31" viewBox="0 0 18 31" fill="none" xmlns="http://www.w3.org/2000/svg">
<path d="M2.25 -1.37408e-06L2.25 2.06667L4.5 2.06667L4.5 4.13333L6.75 4.13333L6.75 6.2L9 6.2L9 8.26667L11.25 8.26667L11.25 10.3333L13.5 10.3333L13.5 12.4L15.75 12.4L15.75 14.4667L18 14.4667L18 16.5333L15.75 16.5333L15.75 18.6L13.5 18.6L13.5 20.6667L11.25 20.6667L11.25 22.7333L9 22.7333L9 24.8L6.75 24.8L6.75 26.8667L4.5 26.8667L4.5 28.9333L2.25 28.9333L2.25 31L2.68618e-06 31L2.50551e-06 28.9333L1.5675e-07 2.06667L-2.39236e-08 -1.17737e-06L2.25 -1.37408e-06Z" fill="black"/>
</svg>
