<svg width="35" height="36" viewBox="0 0 35 36" fill="none" xmlns="http://www.w3.org/2000/svg">
<path d="M32.5785 5.05987V2.52915H30.1237L30.1252 0H0.0562062V0.0579429L0 0.056377V36H2.84073V35.9436H35V5.05983L32.5785 5.05987ZM22.7591 10.4424V2.92545H24.825V12.6145H10.1794V2.92545H17.3891V10.4424H22.7591ZM32.1881 5.45757V33.0166H30.1434L30.1419 20.3801H27.6323V17.9057L7.34626 17.9073V20.3817H4.90963V33.0182H2.8391L2.84062 2.92541H7.34008V15.3443L7.34616 15.5432L27.6641 15.551L27.6656 2.92566H29.7407V5.45638L32.1881 5.45757ZM27.3029 20.8343V33.015L7.75063 33.0166V20.8343L27.3029 20.8343Z" fill="black"/>
</svg>
