<svg width="36" height="36" viewBox="0 0 36 36" fill="none" xmlns="http://www.w3.org/2000/svg">
<path d="M19.5005 5.87778V11.2497H28.5077C30.16 11.2497 31.5002 12.5913 31.5002 14.2408V32.2592C31.5002 33.9101 30.1614 35.2502 28.5077 35.2502H7.49268C5.84036 35.2502 4.50018 33.9087 4.50018 32.2592V14.2408C4.50018 12.5885 5.83895 11.2497 7.49268 11.2497H16.4999V5.87346L14.8068 7.56657C14.226 8.14736 13.2838 8.14736 12.6946 7.55673C12.1082 6.97173 12.1124 6.01831 12.6847 5.44594L16.9471 1.18354C17.2354 0.895263 17.6137 0.750427 17.9934 0.749023L18.0046 0.754648C18.3857 0.754648 18.764 0.898087 19.0494 1.18355L23.3104 5.44595C23.8912 6.02674 23.8912 6.96753 23.302 7.55674C22.7156 8.14314 21.7621 8.13893 21.1898 7.56658L19.5005 5.87778ZM16.4996 14.2492H7.49956V32.2492H28.5005V14.2492H19.5005V20.2526C19.5005 21.0795 18.8339 21.7503 18 21.7503C17.1718 21.7503 16.4996 21.0781 16.4996 20.2526V14.2492ZM11.9996 11.2497V14.2492H24.0005V11.2497H11.9996ZM16.4996 11.2497H19.5005V14.2492H16.4996V11.2497Z" fill="black"/>
</svg>
