<svg width="21" height="13" viewBox="0 0 21 13" fill="none" xmlns="http://www.w3.org/2000/svg">
<path d="M1 9.55556L2.26667 9.55556L2.26667 8.33333L3.53333 8.33333L3.53333 7.11111L4.8 7.11111L4.8 5.88889L6.06667 5.88889L6.06667 4.66667L7.33333 4.66667L7.33333 3.44444L8.6 3.44444L8.6 2.22222L9.86667 2.22222L9.86667 1L11.1333 1L11.1333 2.22222L12.4 2.22222L12.4 3.44444L13.6667 3.44444L13.6667 4.66667L14.9333 4.66667L14.9333 5.88889L16.2 5.88889L16.2 7.11111L17.4667 7.11111L17.4667 8.33333L18.7333 8.33333L18.7333 9.55556L20 9.55556L20 10.7778L18.7333 10.7778L18.7333 12L17.4667 12L17.4667 10.7778L16.2 10.7778L16.2 9.55556L14.9333 9.55556L14.9333 8.33333L13.6667 8.33333L13.6667 7.11111L12.4 7.11111L12.4 5.88889L11.1333 5.88889L11.1333 4.66667L9.86667 4.66667L9.86667 5.88889L8.6 5.88889L8.6 7.11111L7.33333 7.11111L7.33333 8.33333L6.06667 8.33333L6.06667 9.55556L4.8 9.55556L4.8 10.7778L3.53333 10.7778L3.53333 12L2.26667 12L2.26667 10.7778L1 10.7778L1 9.55556Z" fill="black" stroke="black"/>
</svg>
