<svg width="21" height="13" viewBox="0 0 21 13" fill="none" xmlns="http://www.w3.org/2000/svg">
<path d="M20 3.44444L18.7333 3.44444L18.7333 4.66667L17.4667 4.66667L17.4667 5.88889L16.2 5.88889L16.2 7.11111L14.9333 7.11111L14.9333 8.33333L13.6667 8.33333L13.6667 9.55556L12.4 9.55556L12.4 10.7778L11.1333 10.7778L11.1333 12L9.86667 12L9.86667 10.7778L8.6 10.7778L8.6 9.55556L7.33333 9.55556L7.33333 8.33333L6.06667 8.33333L6.06667 7.11111L4.8 7.11111L4.8 5.88889L3.53333 5.88889L3.53333 4.66667L2.26667 4.66667L2.26667 3.44444L1 3.44444L1 2.22222L2.26667 2.22222L2.26667 1L3.53333 1L3.53333 2.22222L4.8 2.22222L4.8 3.44444L6.06667 3.44444L6.06667 4.66667L7.33333 4.66667L7.33333 5.88889L8.6 5.88889L8.6 7.11111L9.86667 7.11111L9.86667 8.33333L11.1333 8.33333L11.1333 7.11111L12.4 7.11111L12.4 5.88889L13.6667 5.88889L13.6667 4.66667L14.9333 4.66667L14.9333 3.44444L16.2 3.44444L16.2 2.22222L17.4667 2.22222L17.4667 0.999999L18.7333 0.999999L18.7333 2.22222L20 2.22222L20 3.44444Z" fill="black" stroke="black"/>
</svg>
